<?xml version="1.0" standalone="no"?>
<!DOCTYPE svg PUBLIC "-//W3C//DTD SVG 20010904//EN"
 "http://www.w3.org/TR/2001/REC-SVG-20010904/DTD/svg10.dtd">
<svg version="1.0" xmlns="http://www.w3.org/2000/svg"
 width="700.000000pt" height="700.000000pt" viewBox="0 0 700.000000 700.000000"
 preserveAspectRatio="xMidYMid meet">
<metadata>
Created by potrace 1.11, written by Peter Selinger 2001-2013
</metadata>
<g transform="translate(0.000000,700.000000) scale(0.100000,-0.100000)"
fill="#000000" stroke="none">
<path d="M0 3500 l0 -3500 3500 0 3500 0 0 3500 0 3500 -3500 0 -3500 0 0
-3500z m2143 1485 c240 -113 440 -205 444 -205 5 0 32 16 60 35 29 19 93 55
142 80 480 241 1116 209 1558 -77 63 -40 63 -40 100 -25 21 9 220 101 442 206
452 214 463 217 520 160 60 -59 68 -37 -325 -869 -195 -414 -361 -762 -369
-774 -7 -11 -29 -73 -48 -136 -72 -239 -177 -511 -263 -683 -25 -49 -43 -91
-40 -94 3 -3 286 30 630 72 597 74 627 77 651 61 35 -23 51 -60 39 -93 -21
-59 -10 -57 -742 -148 -376 -47 -688 -88 -693 -91 -39 -23 15 -33 669 -113
372 -45 692 -87 710 -93 75 -23 79 -131 5 -159 -15 -5 -264 22 -744 81 -396
50 -733 90 -748 90 -21 0 -35 -10 -58 -43 -51 -71 -191 -204 -269 -256 -100
-67 -171 -93 -273 -99 -139 -8 -253 31 -387 131 -69 52 -193 179 -243 250 -31
42 -38 47 -65 42 -76 -13 -1412 -175 -1441 -175 -47 0 -64 8 -80 41 -21 39
-19 64 8 95 l24 27 659 83 c362 46 661 84 664 85 3 0 -290 38 -650 83 -360 46
-665 88 -676 94 -12 6 -27 25 -34 41 -17 43 -2 82 41 103 33 16 54 14 664 -62
347 -44 633 -79 638 -80 4 0 -20 53 -52 118 -90 179 -165 364 -243 597 -38
116 -73 215 -78 220 -4 6 -170 354 -369 774 -399 845 -390 821 -330 880 57 58
65 55 552 -174z"/>
<path d="M3029 3501 c-192 -105 -135 -386 83 -407 70 -7 149 31 192 93 65 93
37 236 -57 299 -56 38 -162 45 -218 15z"/>
<path d="M3821 3500 c-132 -31 -198 -181 -136 -307 82 -163 318 -152 390 19
46 112 -21 248 -139 283 -54 16 -65 17 -115 5z"/>
</g>
</svg>
